<?xml version="1.0" encoding="UTF-8" standalone="yes"?>
<svg version="1.1" id="Layer_1" xmlns="http://www.w3.org/2000/svg" xmlns:xlink="http://www.w3.org/1999/xlink" x="0px" y="0px" viewBox="0 0 1200 675.1" style="enable-background:new 0 0 1200 675.1;" xml:space="preserve">
  <style type="text/css">&#xD;
	.st0{fill:#3A3A3A;}&#xD;
	.st1{fill:url(#SVGID_1_);}&#xD;
	.st2{fill:url(#SVGID_2_);}&#xD;
	.st3{fill:url(#SVGID_3_);}&#xD;
	.st4{fill:url(#SVGID_4_);}&#xD;
	.st5{fill:url(#SVGID_5_);}&#xD;
	.st6{fill:url(#SVGID_6_);}&#xD;
	.st7{fill:url(#SVGID_7_);}&#xD;
	.st8{fill:url(#SVGID_8_);}&#xD;
	.st9{fill:url(#SVGID_9_);}&#xD;
	.st10{fill:url(#SVGID_10_);}&#xD;
	.st11{fill:url(#SVGID_11_);}&#xD;
	.st12{fill:url(#SVGID_12_);}&#xD;
	.st13{opacity:0.3;fill:url(#SVGID_13_);}&#xD;
	.st14{opacity:0.3;fill:url(#SVGID_14_);}&#xD;
	.st15{opacity:0.3;fill:url(#SVGID_15_);}&#xD;
	.st16{fill:url(#SVGID_16_);}&#xD;
	.st17{fill:url(#SVGID_17_);}&#xD;
	.st18{fill:url(#SVGID_18_);}&#xD;
	.st19{fill:url(#SVGID_19_);}&#xD;
</style>
  <g>
    <g>
      <g>
        <path class="st0" d="M46.6,541.6l-5.3,27.3H38l5.3-27.3H46.6z"/>
        <path class="st0" d="M68.4,544.1l-1,5.2h4.5l-0.5,2.5h-4.5l-1.9,10c-0.2,1.1-0.4,2.1-0.4,2.9c0,1.1,0.5,1.8,1.7,1.8&#xD;&#xA;&#x9;&#x9;&#x9;&#x9;c0.6,0,1.1,0,1.5-0.1l-0.2,2.5c-0.6,0.2-1.6,0.3-2.5,0.3c-2.7,0-3.9-1.6-3.9-3.6c0-1,0.1-2.1,0.4-3.5l2-10.3h-2.7l0.5-2.5h2.7&#xD;&#xA;&#x9;&#x9;&#x9;&#x9;l0.8-4.4L68.4,544.1z"/>
        <path class="st0" d="M84.2,565.6c0.9,0.5,2.3,1.1,3.9,1.1c2.2,0,3.6-1.5,3.6-3.2c0-1.6-0.8-2.6-2.5-3.7c-2-1.2-3.3-3-3.3-4.9&#xD;&#xA;&#x9;&#x9;&#x9;&#x9;c0-3.4,2.9-6,6.9-6c1.7,0,3.1,0.4,3.8,0.9l-0.9,2.4c-0.7-0.4-1.8-0.8-3.1-0.8c-2.1,0-3.5,1.3-3.5,3c0,1.5,0.9,2.3,2.5,3.3&#xD;&#xA;&#x9;&#x9;&#x9;&#x9;c2,1.3,3.5,3,3.5,5.1c0,4.1-3.2,6.4-7.3,6.4c-2,0-3.8-0.6-4.6-1.3L84.2,565.6z"/>
        <path class="st0" d="M137.4,549.3l-3.8,19.5c-0.6,3.3-1.3,5.2-2.4,6.4c-1,1.3-2.7,2-4.5,2c-0.8,0-1.5-0.1-2.1-0.2l0.4-2.5&#xD;&#xA;&#x9;&#x9;&#x9;&#x9;c0.3,0.1,0.8,0.1,1.5,0.1c1.6,0,2.9-0.9,3.7-5l3.9-20.3H137.4z M134.6,544c0-1.2,1-2.2,2.2-2.2c1.2,0,1.9,0.9,1.9,2&#xD;&#xA;&#x9;&#x9;&#x9;&#x9;c-0.1,1.3-1,2.2-2.2,2.2C135.3,546,134.6,545.2,134.6,544z"/>
        <path class="st0" d="M169.6,549.3l-2.6,13.6c-0.5,2.4-0.7,4.4-0.9,6h-3l0.4-3.5l-0.1,0c-1.7,2.5-4.1,3.9-6.5,3.9&#xD;&#xA;&#x9;&#x9;&#x9;&#x9;c-2.5,0-4.7-1.4-4.7-5.2c0-1,0.1-2,0.4-3.2l2.2-11.6h3.3l-2.2,11.3c-0.2,1.1-0.3,2-0.3,2.9c0,1.8,0.7,3,2.7,3&#xD;&#xA;&#x9;&#x9;&#x9;&#x9;c2.3,0,5.2-2.8,6-6.8l2-10.4H169.6z"/>
        <path class="st0" d="M183.9,565.6c0.9,0.5,2.3,1.1,3.9,1.1c2.2,0,3.6-1.5,3.6-3.2c0-1.6-0.8-2.6-2.5-3.7c-2-1.2-3.3-3-3.3-4.9&#xD;&#xA;&#x9;&#x9;&#x9;&#x9;c0-3.4,2.9-6,6.9-6c1.7,0,3.1,0.4,3.8,0.9l-0.9,2.4c-0.7-0.4-1.8-0.8-3.1-0.8c-2.1,0-3.5,1.3-3.5,3c0,1.5,0.9,2.3,2.5,3.3&#xD;&#xA;&#x9;&#x9;&#x9;&#x9;c2,1.3,3.5,3,3.5,5.1c0,4.1-3.2,6.4-7.3,6.4c-2,0-3.8-0.6-4.6-1.3L183.9,565.6z"/>
        <path class="st0" d="M219.1,544.1l-1,5.2h4.5l-0.5,2.5h-4.5l-1.9,10c-0.2,1.1-0.4,2.1-0.4,2.9c0,1.1,0.5,1.8,1.7,1.8&#xD;&#xA;&#x9;&#x9;&#x9;&#x9;c0.6,0,1.1,0,1.5-0.1l-0.2,2.5c-0.6,0.2-1.6,0.3-2.5,0.3c-2.7,0-3.9-1.6-3.9-3.6c0-1,0.1-2.1,0.4-3.5l2-10.3h-2.7l0.5-2.5h2.7&#xD;&#xA;&#x9;&#x9;&#x9;&#x9;l0.8-4.4L219.1,544.1z"/>
        <path class="st0" d="M258.8,549.3l1.6,10.6c0.3,2.1,0.5,3.5,0.7,5.1h0.1c0.5-1.4,1.1-2.8,2-4.8l4.8-10.9h3.5l-7.3,15.2&#xD;&#xA;&#x9;&#x9;&#x9;&#x9;c-2.1,4.3-4.1,7.8-6.8,10.3c-1.9,1.8-4,2.7-5,3l-0.9-2.8c0.9-0.3,2.2-0.9,3.5-1.9c1.3-1,2.7-2.7,3.7-4.4c0.2-0.3,0.2-0.6,0.1-0.9&#xD;&#xA;&#x9;&#x9;&#x9;&#x9;l-3.3-18.4H258.8z"/>
        <path class="st0" d="M300.8,556.5c0,5.7-3.8,12.8-10.3,12.8c-4.6,0-6.9-3.5-6.9-7.6c0-6.1,4.1-12.8,10.4-12.8&#xD;&#xA;&#x9;&#x9;&#x9;&#x9;C298.9,548.9,300.8,552.8,300.8,556.5z M286.9,561.5c0,2.9,1.3,5.2,4,5.2c3.9,0,6.5-6.1,6.5-10.3c0-2.2-0.9-5-3.9-5&#xD;&#xA;&#x9;&#x9;&#x9;&#x9;C289.5,551.5,286.9,557.2,286.9,561.5z"/>
        <path class="st0" d="M333.5,549.3l-2.6,13.6c-0.5,2.4-0.7,4.4-0.9,6h-3l0.4-3.5l-0.1,0c-1.7,2.5-4.1,3.9-6.5,3.9&#xD;&#xA;&#x9;&#x9;&#x9;&#x9;c-2.5,0-4.7-1.4-4.7-5.2c0-1,0.1-2,0.4-3.2l2.2-11.6h3.3l-2.2,11.3c-0.2,1.1-0.3,2-0.3,2.9c0,1.8,0.7,3,2.7,3&#xD;&#xA;&#x9;&#x9;&#x9;&#x9;c2.3,0,5.2-2.8,6-6.8l2-10.4H333.5z"/>
        <path class="st0" d="M379.2,568.9c0-1.2,0.2-2.8,0.4-4.7h-0.1c-2.1,3.8-4.6,5.1-7,5.1c-3.2,0-5.1-2.5-5.1-6.2&#xD;&#xA;&#x9;&#x9;&#x9;&#x9;c0-6.6,4.6-14.2,12.9-14.2c1.8,0,3.6,0.3,4.9,0.7l-2.1,10.5c-0.6,3.2-0.9,6.6-0.8,8.8H379.2z M381.5,551.7&#xD;&#xA;&#x9;&#x9;&#x9;&#x9;c-0.5-0.1-1.1-0.2-2-0.2c-5,0-8.7,5.8-8.7,10.9c0,2.3,0.7,4.2,2.9,4.2c2.6,0,5.6-3.7,6.5-8.5L381.5,551.7z"/>
        <path class="st0" d="M399.3,568.9l2.6-13.6c0.5-2.4,0.7-4.4,1-6h2.9l-0.5,3.6h0.1c1.7-2.6,4.1-4,6.8-4c2.4,0,4.6,1.5,4.6,5&#xD;&#xA;&#x9;&#x9;&#x9;&#x9;c0,1-0.2,2.1-0.4,3.2l-2.3,11.8h-3.3l2.3-11.7c0.2-0.8,0.3-1.7,0.3-2.6c0-1.7-0.7-3-2.7-3c-2.3,0-5.4,2.8-6.2,7.3l-1.9,9.9H399.3&#xD;&#xA;&#x9;&#x9;&#x9;&#x9;z"/>
        <path class="st0" d="M451.9,540.4l-4.3,22.1c-0.4,2.1-0.8,4.5-0.9,6.4h-3l0.4-3.6h-0.1c-1.6,2.5-3.9,4-6.5,4&#xD;&#xA;&#x9;&#x9;&#x9;&#x9;c-3.5,0-5.4-2.9-5.4-6.7c0-6.9,4.8-13.6,11.5-13.6c1.1,0,2.4,0.3,3.1,0.7l1.8-9.2H451.9z M446.3,552.4c-0.6-0.5-1.6-0.8-2.8-0.8&#xD;&#xA;&#x9;&#x9;&#x9;&#x9;c-4.5,0-7.8,5.7-7.8,10.6c0,2.4,0.7,4.6,3.3,4.6c2.3,0,5.1-2.6,5.9-6.8L446.3,552.4z"/>
        <path class="st0" d="M496.2,568.2c-0.9,0.4-2.7,1-5,1c-4.8,0-7-3.4-7-7.4c0-6.4,4.6-12.9,11.6-12.9c1.6,0,3,0.4,3.5,0.7l-0.9,2.6&#xD;&#xA;&#x9;&#x9;&#x9;&#x9;c-0.7-0.3-1.6-0.6-2.8-0.6c-4.9,0-7.9,5.3-7.9,9.8c0,3.1,1.4,5.1,4.4,5.1c1.7,0,3-0.5,4-0.9L496.2,568.2z"/>
        <path class="st0" d="M529.1,556.5c0,5.7-3.8,12.8-10.3,12.8c-4.6,0-6.9-3.5-6.9-7.6c0-6.1,4.1-12.8,10.4-12.8&#xD;&#xA;&#x9;&#x9;&#x9;&#x9;C527.2,548.9,529.1,552.8,529.1,556.5z M515.2,561.5c0,2.9,1.3,5.2,4,5.2c3.9,0,6.5-6.1,6.5-10.3c0-2.2-0.9-5-3.9-5&#xD;&#xA;&#x9;&#x9;&#x9;&#x9;C517.8,551.5,515.2,557.2,515.2,561.5z"/>
        <path class="st0" d="M543.5,568.9l2.6-13.6c0.5-2.4,0.7-4.4,1-6h2.9l-0.5,3.5h0.1c1.8-2.6,4.1-3.9,6.5-3.9c2.8,0,4.1,1.8,4.2,4.1&#xD;&#xA;&#x9;&#x9;&#x9;&#x9;c1.7-2.7,4.1-4.1,6.7-4.1c2.3,0,4.4,1.6,4.4,4.8c0,0.9-0.1,2.2-0.4,3.4l-2.3,11.8h-3.2l2.2-11.6c0.2-0.8,0.3-1.8,0.3-2.7&#xD;&#xA;&#x9;&#x9;&#x9;&#x9;c0-1.8-0.7-2.9-2.6-2.9c-2.3,0-5,2.8-5.8,7l-2,10.3h-3.2l2.3-11.8c0.2-0.9,0.3-1.7,0.3-2.6c0-1.5-0.5-2.9-2.6-2.9&#xD;&#xA;&#x9;&#x9;&#x9;&#x9;c-2.2,0-5.1,3.1-5.9,7.1l-1.9,10.2H543.5z"/>
        <path class="st0" d="M584.9,576.8l4-20.6c0.5-2.5,0.9-5.1,1.1-6.9h3l-0.5,3.5h0.1c1.7-2.4,4.1-3.9,6.6-3.9c3.9,0,5.4,3.2,5.4,6.6&#xD;&#xA;&#x9;&#x9;&#x9;&#x9;c0,6.6-4.5,13.8-10.9,13.8c-1.7,0-3-0.4-3.7-0.8h-0.1l-1.6,8.3H584.9z M590.3,565.8c0.8,0.6,1.9,1,3.2,1c4.5,0,7.6-6.5,7.6-10.9&#xD;&#xA;&#x9;&#x9;&#x9;&#x9;c0-2-0.8-4.2-3.3-4.2c-2.5,0-5.5,3.1-6.4,8L590.3,565.8z"/>
        <path class="st0" d="M637.2,549.3l-2.6,13.6c-0.5,2.4-0.7,4.4-0.9,6h-3l0.4-3.5l-0.1,0c-1.7,2.5-4.1,3.9-6.5,3.9&#xD;&#xA;&#x9;&#x9;&#x9;&#x9;c-2.5,0-4.7-1.4-4.7-5.2c0-1,0.1-2,0.4-3.2l2.2-11.6h3.3l-2.2,11.3c-0.2,1.1-0.3,2-0.3,2.9c0,1.8,0.7,3,2.7,3&#xD;&#xA;&#x9;&#x9;&#x9;&#x9;c2.3,0,5.2-2.8,6-6.8l2-10.4H637.2z"/>
        <path class="st0" d="M660.1,544.1l-1,5.2h4.5l-0.5,2.5h-4.5l-1.9,10c-0.2,1.1-0.4,2.1-0.4,2.9c0,1.1,0.5,1.8,1.7,1.8&#xD;&#xA;&#x9;&#x9;&#x9;&#x9;c0.6,0,1.1,0,1.5-0.1l-0.2,2.5c-0.6,0.2-1.6,0.3-2.5,0.3c-2.7,0-3.9-1.6-3.9-3.6c0-1,0.1-2.1,0.4-3.5l2-10.3h-2.7l0.5-2.5h2.7&#xD;&#xA;&#x9;&#x9;&#x9;&#x9;l0.8-4.4L660.1,544.1z"/>
        <path class="st0" d="M675.7,568.9l3.8-19.6h3.3l-3.8,19.6H675.7z M680.2,544c0-1.2,1-2.2,2.2-2.2c1.2,0,1.9,0.9,1.9,2&#xD;&#xA;&#x9;&#x9;&#x9;&#x9;c-0.1,1.3-1,2.2-2.2,2.2C680.9,546,680.2,545.2,680.2,544z"/>
        <path class="st0" d="M697,568.9l2.6-13.6c0.5-2.4,0.7-4.4,1-6h2.9l-0.5,3.6h0.1c1.7-2.6,4.1-4,6.8-4c2.4,0,4.6,1.5,4.6,5&#xD;&#xA;&#x9;&#x9;&#x9;&#x9;c0,1-0.2,2.1-0.4,3.2l-2.3,11.8h-3.3l2.3-11.7c0.2-0.8,0.3-1.7,0.3-2.6c0-1.7-0.7-3-2.7-3c-2.3,0-5.4,2.8-6.2,7.3l-1.9,9.9H697z"/>
        <path class="st0" d="M729.8,573.4c1.1,0.7,2.9,1.2,4.7,1.2c3.3,0,5.5-1.8,6.5-6.6l0.7-3h-0.1c-1.7,2.8-3.9,3.9-6.3,3.9&#xD;&#xA;&#x9;&#x9;&#x9;&#x9;c-3.5,0-5.4-2.9-5.4-6.4c0-6.4,4.4-13.6,11.9-13.6c2.1,0,4.3,0.6,5.8,1.2l-3.1,16.4c-0.8,4.1-1.9,6.9-3.8,8.5&#xD;&#xA;&#x9;&#x9;&#x9;&#x9;c-1.8,1.6-4.2,2.1-6.5,2.1c-2.2,0-4.2-0.5-5.4-1.2L729.8,573.4z M744,552.1c-0.6-0.3-1.6-0.6-2.8-0.6c-4.7,0-7.8,5.7-7.9,10.3&#xD;&#xA;&#x9;&#x9;&#x9;&#x9;c0,2.2,0.6,4.6,3.3,4.6c2.7,0,5.3-3.7,6-7.1L744,552.1z"/>
      </g>
    </g>
    <g>
      <linearGradient id="SVGID_1_" gradientUnits="userSpaceOnUse" x1="104.1396" y1="513.8374" x2="40.0046" y2="449.7023">
        <stop offset="0" style="stop-color:#0043D4"/>
        <stop offset="0.1097" style="stop-color:#0049D5"/>
        <stop offset="0.2601" style="stop-color:#005BD9"/>
        <stop offset="0.4341" style="stop-color:#0078E0"/>
        <stop offset="0.6258" style="stop-color:#00A0E9"/>
        <stop offset="0.8295" style="stop-color:#00D3F5"/>
        <stop offset="0.9841" style="stop-color:#00FFFF"/>
      </linearGradient>
      <linearGradient id="SVGID_2_" gradientUnits="userSpaceOnUse" x1="251.2677" y1="544.5753" x2="134.4151" y2="427.7227">
        <stop offset="0" style="stop-color:#0043D4"/>
        <stop offset="0.1097" style="stop-color:#0049D5"/>
        <stop offset="0.2601" style="stop-color:#005BD9"/>
        <stop offset="0.4341" style="stop-color:#0078E0"/>
        <stop offset="0.6258" style="stop-color:#00A0E9"/>
        <stop offset="0.8295" style="stop-color:#00D3F5"/>
        <stop offset="0.9841" style="stop-color:#00FFFF"/>
      </linearGradient>
      <linearGradient id="SVGID_3_" gradientUnits="userSpaceOnUse" x1="372.9013" y1="525.3569" x2="293.006" y2="445.4616">
        <stop offset="0" style="stop-color:#0043D4"/>
        <stop offset="0.1097" style="stop-color:#0049D5"/>
        <stop offset="0.2601" style="stop-color:#005BD9"/>
        <stop offset="0.4341" style="stop-color:#0078E0"/>
        <stop offset="0.6258" style="stop-color:#00A0E9"/>
        <stop offset="0.8295" style="stop-color:#00D3F5"/>
        <stop offset="0.9841" style="stop-color:#00FFFF"/>
      </linearGradient>
      <linearGradient id="SVGID_4_" gradientUnits="userSpaceOnUse" x1="443.4342" y1="502.2935" x2="384.9846" y2="443.8439">
        <stop offset="0" style="stop-color:#0043D4"/>
        <stop offset="0.1097" style="stop-color:#0049D5"/>
        <stop offset="0.2601" style="stop-color:#005BD9"/>
        <stop offset="0.4341" style="stop-color:#0078E0"/>
        <stop offset="0.6258" style="stop-color:#00A0E9"/>
        <stop offset="0.8295" style="stop-color:#00D3F5"/>
        <stop offset="0.9841" style="stop-color:#00FFFF"/>
      </linearGradient>
      <linearGradient id="SVGID_5_" gradientUnits="userSpaceOnUse" x1="540.7534" y1="508.5115" x2="458.6156" y2="426.3737">
        <stop offset="0" style="stop-color:#0043D4"/>
        <stop offset="0.1097" style="stop-color:#0049D5"/>
        <stop offset="0.2601" style="stop-color:#005BD9"/>
        <stop offset="0.4341" style="stop-color:#0078E0"/>
        <stop offset="0.6258" style="stop-color:#00A0E9"/>
        <stop offset="0.8295" style="stop-color:#00D3F5"/>
        <stop offset="0.9841" style="stop-color:#00FFFF"/>
      </linearGradient>
      <path class="st1" d="M92.1,436.4c4.9,2.1,9.4,5.3,13.6,9.4l-14.6,16.4c-4.2-5-9.5-7.6-15.9-7.6c-6.3,0-10.5,1.2-12.6,3.5&#xD;&#xA;&#x9;&#x9;&#x9;c-2.1,2.3-2.1,4.5,0,6.4c2.1,1.9,6.3,3.5,12.6,4.7c9.3,0.9,16.9,3.5,22.8,7.9c5.9,4.4,8.9,12.1,8.9,23.1c0,8.8-3.5,15.7-10.5,20.6&#xD;&#xA;&#x9;&#x9;&#x9;c-7,4.9-15.1,7.3-24.4,7.3c-8.8,0-16.2-1.3-22.1-3.8c-5.9-2.5-10.9-5.9-15.2-10.1l14.5-16.4c4.2,5,10.8,8,19.7,8.8&#xD;&#xA;&#x9;&#x9;&#x9;c7.2,0,11.8-1.2,13.9-3.5c2.1-2.3,2.4-4.7,0.9-7c-1.5-2.3-6.4-3.9-14.8-4.7c-7.6-0.9-14.6-3.2-20.9-7c-6.3-3.8-9.5-11-9.5-21.5&#xD;&#xA;&#x9;&#x9;&#x9;c0-9.7,3.6-17,10.8-22.1c7.2-5.1,14.6-7.6,22.2-7.6C80.4,433.2,87.3,434.3,92.1,436.4z"/>
      <path class="st2" d="M151.8,467.4v59.8h-26.2v-90.7l26.2-2.8v8.3c5.9-5.5,13.3-8.2,22.4-8.2c11.8,0,20.9,3.6,27.1,10.7&#xD;&#xA;&#x9;&#x9;&#x9;c6.9-7.2,17.1-10.7,30.8-10.7c11.8,0,20.9,3.6,27.1,10.7c6.2,7.2,9.3,15.4,9.3,24.8v57.9h-26.2v-51.4c0-6.2-1.4-11.1-4.2-14.5&#xD;&#xA;&#x9;&#x9;&#x9;c-2.8-3.4-7.4-5.2-13.6-5.4c-5.2,0.4-9.7,3.8-13.5,10.3c-0.3,1.9-0.5,3.9-0.5,5.9v55.1h-26.2v-51.4c0-6.2-1.4-11.1-4.2-14.5&#xD;&#xA;&#x9;&#x9;&#x9;c-2.8-3.4-7.4-5.2-13.6-5.4C161,456.3,156,460.1,151.8,467.4z"/>
      <path class="st3" d="M293.5,445c11.8-7.5,25.5-11.2,41.1-11.2c11.2,0,20.1,3.1,26.6,9.3c6.5,6.2,9.8,15.6,9.8,28v56.1h-26.2v-7.5&#xD;&#xA;&#x9;&#x9;&#x9;c-7.6,5-14.5,7.5-20.6,7.5c-12.5,0-21.8-2.6-28-7.9c-6.2-5.3-9.3-12.6-9.3-22c0-8.7,2.9-16.5,8.8-23.4&#xD;&#xA;&#x9;&#x9;&#x9;c5.9-6.9,15.4-10.3,28.5-10.3c6,0,12.9,1.9,20.6,5.6v-2.8c-0.1-6.9-5.1-10.6-15-11.2c-11.2,0-19.9,1.9-26.2,5.6L293.5,445z&#xD;&#xA;&#x9;&#x9;&#x9; M344.9,499.2v-10.6c-2.5-4.8-8.4-7.2-17.8-7.2c-11.2,1.2-17.1,5.6-17.8,13.1c0.6,7.4,6.5,11.4,17.8,12.1&#xD;&#xA;&#x9;&#x9;&#x9;C336.5,506.5,342.4,504.1,344.9,499.2z"/>
      <path class="st4" d="M418.5,444c6.7-6.9,14.8-10.3,24.4-10.3c3.1,0,5.9,0.2,8.7,0.7l-4.1,25.8c-3.1-2.7-7.4-4.2-13.1-4.4&#xD;&#xA;&#x9;&#x9;&#x9;c-6.4,0.4-11.7,5-15.9,13.8v57.5h-26.2v-90.7l26.2-2.8V444z"/>
      <path class="st5" d="M511,527.2c-10.6,0-19-3-25.2-8.9c-6.2-5.9-9.3-13.5-9.3-22.9V455h-14v-21.1h14v-25.3l26.3-2.8v28.1h14V455&#xD;&#xA;&#x9;&#x9;&#x9;h-14v36.7c0,5,1,8.5,3.1,10.5c2.1,2,4.8,3,8.1,3c1,0,3.3-0.4,7-1.2l5.5,18.8C522,525.7,516.8,527.2,511,527.2z"/>
    </g>
    <g>
      <linearGradient id="SVGID_6_" gradientUnits="userSpaceOnUse" x1="619.6205" y1="516.4267" x2="550.2519" y2="447.0581">
        <stop offset="0" style="stop-color:#00AA78"/>
        <stop offset="1" style="stop-color:#A5C43D"/>
      </linearGradient>
      <linearGradient id="SVGID_7_" gradientUnits="userSpaceOnUse" x1="756.5001" y1="508.903" x2="673.3344" y2="425.7372">
        <stop offset="0" style="stop-color:#00AA78"/>
        <stop offset="1" style="stop-color:#A5C43D"/>
      </linearGradient>
      <linearGradient id="SVGID_8_" gradientUnits="userSpaceOnUse" x1="850.6807" y1="539.6851" x2="762.6927" y2="451.6972">
        <stop offset="0" style="stop-color:#00AA78"/>
        <stop offset="1" style="stop-color:#A5C43D"/>
      </linearGradient>
      <linearGradient id="SVGID_9_" gradientUnits="userSpaceOnUse" x1="945.369" y1="516.4267" x2="876.0004" y2="447.0581">
        <stop offset="0" style="stop-color:#00AA78"/>
        <stop offset="1" style="stop-color:#A5C43D"/>
      </linearGradient>
      <path class="st6" d="M537.4,480.5c0-13.7,4.4-24.9,13.1-33.6c8.7-8.7,19.9-13.1,33.6-13.1c13.7,0,24.6,4.4,32.7,13.1&#xD;&#xA;&#x9;&#x9;&#x9;c8.1,8.7,12.1,19.9,12.1,33.6v9.3h-64.5c0.6,5,2.8,8.9,6.5,11.7c3.7,2.8,8.1,4.2,13.1,4.2c8.7,0,16.5-2.5,23.4-7.5l15,15&#xD;&#xA;&#x9;&#x9;&#x9;c-6.9,9.3-19.6,14-38.3,14c-13.7,0-24.9-4.4-33.6-13.1C541.8,505.4,537.4,494.2,537.4,480.5z M597.2,459.4&#xD;&#xA;&#x9;&#x9;&#x9;c-3.7-2.8-8.1-4.2-13.1-4.2c-5,0-9.3,1.4-13.1,4.2c-3.7,2.8-5.6,6.7-5.6,11.7h37.4C602.8,466.1,600.9,462.3,597.2,459.4z"/>
      <path class="st7" d="M738.2,387.1v140.1H712v-7.5c-7,5-13.8,7.5-20.6,7.5c-14.3,0-25.7-4.7-34.1-14c-8.4-9.3-12.6-20.2-12.6-32.7&#xD;&#xA;&#x9;&#x9;&#x9;c0-12.5,4.2-23.4,12.6-32.7c8.4-9.3,19.8-14,34.1-14c9.3,0.6,16.2,3.1,20.6,7.6V387L738.2,387.1z M712,488.9v-15.1&#xD;&#xA;&#x9;&#x9;&#x9;c-1.2-10.5-7.8-16.6-19.6-18.4c-15,1.2-23.4,8.9-25.2,23.3c0.6,17.4,9,26.5,25.2,27.1C704.3,503.8,710.8,498.2,712,488.9z"/>
      <path class="st8" d="M849.4,436.6v83.2c0,13.1-3.9,24-11.7,32.8c-7.8,8.8-17.6,13.4-29.4,13.9l-5.6,0.6&#xD;&#xA;&#x9;&#x9;&#x9;c-18.1-0.4-32.1-5.5-42.1-15.5l12.1-14c6.9,5,15.2,7.8,24.9,8.4c10,0,16.7-2.3,20.2-7c3.5-4.7,5.3-9.8,5.3-15.4v-4.7&#xD;&#xA;&#x9;&#x9;&#x9;c-7,5.6-15.1,8.4-24.3,8.4c-14.3,0-25.1-4.2-32.2-12.6c-7.2-8.4-10.7-19.8-10.7-34.1c0-13.7,3.9-24.9,11.7-33.6&#xD;&#xA;&#x9;&#x9;&#x9;c7.8-8.7,18.8-13.1,33.2-13.1c10.6,0.6,18.1,3.5,22.4,8.5v-8.5L849.4,436.6z M823.2,488.9v-15.1c-1.2-10.5-7.8-16.6-19.6-18.4&#xD;&#xA;&#x9;&#x9;&#x9;c-15.6,0.6-24,8.3-25.2,23.3c0.6,17.4,9,26.5,25.2,27.1C815.5,503.8,822,498.2,823.2,488.9z"/>
      <path class="st9" d="M863.1,480.5c0-13.7,4.4-24.9,13.1-33.6c8.7-8.7,19.9-13.1,33.6-13.1c13.7,0,24.6,4.4,32.7,13.1&#xD;&#xA;&#x9;&#x9;&#x9;c8.1,8.7,12.1,19.9,12.1,33.6v9.3h-64.5c0.6,5,2.8,8.9,6.5,11.7c3.7,2.8,8.1,4.2,13.1,4.2c8.7,0,16.5-2.5,23.4-7.5l15,15&#xD;&#xA;&#x9;&#x9;&#x9;c-6.9,9.3-19.6,14-38.3,14c-13.7,0-24.9-4.4-33.6-13.1C867.5,505.4,863.1,494.2,863.1,480.5z M922.9,459.4&#xD;&#xA;&#x9;&#x9;&#x9;c-3.7-2.8-8.1-4.2-13.1-4.2c-5,0-9.3,1.4-13.1,4.2c-3.7,2.8-5.6,6.7-5.6,11.7h37.4C928.6,466.1,926.7,462.3,922.9,459.4z"/>
    </g>
    <g>
      <g>
        <linearGradient id="SVGID_10_" gradientUnits="userSpaceOnUse" x1="1028.4999" y1="512.8412" x2="1084.307" y2="416.1804">
          <stop offset="1.587300e-02" style="stop-color:#00FFFF"/>
          <stop offset="0.2836" style="stop-color:#19DEFB"/>
          <stop offset="0.5698" style="stop-color:#2EC1F8"/>
          <stop offset="0.8185" style="stop-color:#3AAFF6"/>
          <stop offset="1" style="stop-color:#3FA9F5"/>
        </linearGradient>
        <linearGradient id="SVGID_11_" gradientUnits="userSpaceOnUse" x1="1095.9248" y1="419.7001" x2="1103.653" y2="406.3147">
          <stop offset="1.587300e-02" style="stop-color:#00FFFF"/>
          <stop offset="0.2836" style="stop-color:#19DEFB"/>
          <stop offset="0.5698" style="stop-color:#2EC1F8"/>
          <stop offset="0.8185" style="stop-color:#3AAFF6"/>
          <stop offset="1" style="stop-color:#3FA9F5"/>
        </linearGradient>
        <linearGradient id="SVGID_12_" gradientUnits="userSpaceOnUse" x1="1035.9932" y1="531.4673" x2="1080.6506" y2="454.1182">
          <stop offset="1.587300e-02" style="stop-color:#00FFFF"/>
          <stop offset="0.2836" style="stop-color:#19DEFB"/>
          <stop offset="0.5698" style="stop-color:#2EC1F8"/>
          <stop offset="0.8185" style="stop-color:#3AAFF6"/>
          <stop offset="1" style="stop-color:#3FA9F5"/>
        </linearGradient>
        <path class="st10" d="M979.8,468.5c6.1-24.7,28-43.4,53.9-44.7c22.7-1.1,43.6,11.6,54.1,30.6v55.3c0,6.6,5.4,12,12,12&#xD;&#xA;&#x9;&#x9;&#x9;&#x9;c6.6,0,12-5.4,12-12V439c0-6.6-5.4-12-12-12c-6.6,0-12,5.4-12,12v5.2c-12.2-16.2-31.8-26.6-53-26c-28.9,0.7-53.5,21.5-60.4,49&#xD;&#xA;&#x9;&#x9;&#x9;&#x9;c-1.3,0.2-2.6,0.8-3.6,1.8c-2.8,2.7-3,7.2-0.3,10c2.7,2.8,7.2,3,10,0.3c2.8-2.7,3-7.2,0.3-10C980.5,469,980.1,468.7,979.8,468.5z&#xD;&#xA;&#x9;&#x9;&#x9;&#x9;"/>
        <path class="st11" d="M1099.8,420.7c4.3,0,7.7-3.5,7.7-7.7c0-4.3-3.5-7.7-7.7-7.7c-4.3,0-7.7,3.5-7.7,7.7&#xD;&#xA;&#x9;&#x9;&#x9;&#x9;C1092.1,417.3,1095.5,420.7,1099.8,420.7z"/>
        <path class="st12" d="M1136,496.4c0-4.7-3.8-8.4-8.4-8.4c-4.6,0-8.4,3.8-8.4,8.4c0,3.9,2.7,7.2,6.3,8.1&#xD;&#xA;&#x9;&#x9;&#x9;&#x9;c-2.9,13.8-15.9,24.1-30.3,23.4c-8.1-0.4-15.5-4.2-20.6-10c3.7-2.2,6.3-6.4,6.3-11.2V483c0-0.5-0.2-0.9-0.3-1.4&#xD;&#xA;&#x9;&#x9;&#x9;&#x9;c0-0.7-0.1-1.4-0.1-2c0-24.5-19.8-44.3-44.3-44.3c-24.5,0-44.3,19.9-44.3,44.3c0,20.2,12.6,38.2,30.2,41.8&#xD;&#xA;&#x9;&#x9;&#x9;&#x9;c3.3,0.7,9,2.2,13.3,2.2c7.2,0,13-5.8,13-13c0-7.2-5.8-13-13-13c0,0-7.1,0.6-9.3,0c-7-1.8-10.5-10.3-10.5-18&#xD;&#xA;&#x9;&#x9;&#x9;&#x9;c0-11.4,9.2-20.6,20.6-20.6c11.4,0,20.5,9.2,20.5,20.6c0,0.8,0.1,11.8,0.1,11.8v15.3c0,7.1,5.6,12.8,12.1,12.8&#xD;&#xA;&#x9;&#x9;&#x9;&#x9;c1.1,0,2.1-0.2,3.1-0.5c5.8,7,14.4,11.5,23.9,11.8c15.6,0.4,29.5-10.9,32.5-26C1132.6,504.5,1136,500.8,1136,496.4z&#xD;&#xA;&#x9;&#x9;&#x9;&#x9; M1034.1,444.1c-12.7,0.6-23.8,8.2-29.4,19.1c0.4,0.2,0.9,0.5,1.2,0.9c1.9,2,1.8,5.1-0.2,6.9c-2,1.9-5.1,1.8-6.9-0.2&#xD;&#xA;&#x9;&#x9;&#x9;&#x9;c-1.9-2-1.8-5.1,0.2-6.9c0.6-0.6,1.4-1,2.2-1.2c6.1-12.5,18.9-21.6,33.6-22c16.3-0.4,31,9.8,36.8,24.5c0.8,0.2,1.6,0.7,2.3,1.3&#xD;&#xA;&#x9;&#x9;&#x9;&#x9;c1.9,2,1.8,5.1-0.2,6.9c-2,1.9-5.1,1.8-6.9-0.2c-1.9-2-1.8-5.1,0.2-6.9c0.4-0.3,0.8-0.6,1.2-0.8&#xD;&#xA;&#x9;&#x9;&#x9;&#x9;C1062.5,452.5,1048.9,443.4,1034.1,444.1z"/>
      </g>
      <g>
        <linearGradient id="SVGID_13_" gradientUnits="userSpaceOnUse" x1="822.6857" y1="749.7007" x2="1154.0229" y2="397.7226" gradientTransform="matrix(0.9478 0.3188 -0.3188 0.9478 244.3232 -361.8812)">
          <stop offset="0" style="stop-color:#BAF257"/>
          <stop offset="0.1707" style="stop-color:#D1C77D"/>
          <stop offset="0.4707" style="stop-color:#FF74C8"/>
          <stop offset="0.5509" style="stop-color:#FA75CA"/>
          <stop offset="0.6498" style="stop-color:#EB76CF"/>
          <stop offset="0.7587" style="stop-color:#D179D7"/>
          <stop offset="0.8747" style="stop-color:#AE7CE3"/>
          <stop offset="0.9953" style="stop-color:#8281F1"/>
          <stop offset="1" style="stop-color:#8081F2"/>
        </linearGradient>
        <linearGradient id="SVGID_14_" gradientUnits="userSpaceOnUse" x1="865.5683" y1="790.0624" x2="1196.9005" y2="438.0897" gradientTransform="matrix(0.9478 0.3188 -0.3188 0.9478 244.3232 -361.8812)">
          <stop offset="0" style="stop-color:#BAF257"/>
          <stop offset="0.1707" style="stop-color:#D1C77D"/>
          <stop offset="0.4707" style="stop-color:#FF74C8"/>
          <stop offset="0.5509" style="stop-color:#FA75CA"/>
          <stop offset="0.6498" style="stop-color:#EB76CF"/>
          <stop offset="0.7587" style="stop-color:#D179D7"/>
          <stop offset="0.8747" style="stop-color:#AE7CE3"/>
          <stop offset="0.9953" style="stop-color:#8281F1"/>
          <stop offset="1" style="stop-color:#8081F2"/>
        </linearGradient>
        <linearGradient id="SVGID_15_" gradientUnits="userSpaceOnUse" x1="845.7228" y1="771.3573" x2="1177.0337" y2="419.4073" gradientTransform="matrix(0.9478 0.3188 -0.3188 0.9478 244.3232 -361.8812)">
          <stop offset="0" style="stop-color:#BAF257"/>
          <stop offset="0.1707" style="stop-color:#D1C77D"/>
          <stop offset="0.4707" style="stop-color:#FF74C8"/>
          <stop offset="0.5509" style="stop-color:#FA75CA"/>
          <stop offset="0.6498" style="stop-color:#EB76CF"/>
          <stop offset="0.7587" style="stop-color:#D179D7"/>
          <stop offset="0.8747" style="stop-color:#AE7CE3"/>
          <stop offset="0.9953" style="stop-color:#8281F1"/>
          <stop offset="1" style="stop-color:#8081F2"/>
        </linearGradient>
        <path class="st13" d="M1016.9,449.7c-5.1,3.3-9.4,8-12.2,13.5c0.4,0.2,0.9,0.5,1.2,0.9c1.9,2,1.8,5.1-0.2,6.9&#xD;&#xA;&#x9;&#x9;&#x9;&#x9;c-2,1.9-5.1,1.8-6.9-0.2c-1.9-2-1.8-5.1,0.2-6.9c0.6-0.6,1.4-1,2.2-1.2c3.1-6.3,7.9-11.8,13.8-15.7c-1.1-1.5-2.1-3.1-3-4.7&#xD;&#xA;&#x9;&#x9;&#x9;&#x9;c-12.2,7.9-20.2,21.6-20.2,37.2c0,5.3,0.9,10.4,2.4,15.2c10.4,8.9,22.6,16,36.3,20.6c4.8,1.6,9.6,2.9,14.5,3.8&#xD;&#xA;&#x9;&#x9;&#x9;&#x9;c2-2.3,3.3-5.3,3.3-8.6c0-7.2-5.8-13-13-13c0,0-7.1,0.6-9.3,0c-7-1.8-10.5-10.3-10.5-18c0-8.5,5.2-15.8,12.6-19&#xD;&#xA;&#x9;&#x9;&#x9;&#x9;C1023.8,457.4,1020.1,453.8,1016.9,449.7z"/>
        <path class="st14" d="M1127.6,488c-4.6,0-8.4,3.8-8.4,8.4c0,3.4,2,6.4,5,7.7c4.1-2.6,8.1-5.5,11.8-8.6&#xD;&#xA;&#x9;&#x9;&#x9;&#x9;C1135.5,491.3,1131.9,488,1127.6,488z"/>
        <path class="st15" d="M1074.5,517.9c3.7-2.2,6.3-6.4,6.3-11.2V483c0-0.5-0.2-0.9-0.3-1.4c0-0.7-0.1-1.4-0.1-2&#xD;&#xA;&#x9;&#x9;&#x9;&#x9;c0-2.7-0.3-5.4-0.7-8c-1.7,0.4-3.5,0.7-5.3,1c-0.2,0.3-0.4,0.6-0.7,0.9c-2,1.9-5.1,1.8-6.9-0.2c0,0,0-0.1-0.1-0.1&#xD;&#xA;&#x9;&#x9;&#x9;&#x9;c-3.7,0.1-7.5-0.2-11.3-0.8c0.8,2.2,1.3,4.6,1.3,7.2c0,0.8,0.1,11.8,0.1,11.8v15.3c0,7.1,5.6,12.8,12.1,12.8&#xD;&#xA;&#x9;&#x9;&#x9;&#x9;c1.1,0,2.1-0.2,3.1-0.5c0.5,0.6,1,1.2,1.6,1.8c1.2-0.1,2.4-0.2,3.7-0.3C1076.2,519.7,1075.3,518.8,1074.5,517.9z"/>
      </g>
    </g>
    <g>
      <linearGradient id="SVGID_16_" gradientUnits="userSpaceOnUse" x1="819.5721" y1="216.0457" x2="601.2064" y2="184.3986">
        <stop offset="0" style="stop-color:#00B7F9"/>
        <stop offset="1" style="stop-color:#0099A6"/>
      </linearGradient>
      <linearGradient id="SVGID_17_" gradientUnits="userSpaceOnUse" x1="596.0635" y1="239.373" x2="812.4975" y2="102.483">
        <stop offset="0" style="stop-color:#B4B4B4"/>
        <stop offset="1" style="stop-color:#000000"/>
      </linearGradient>
      <linearGradient id="SVGID_18_" gradientUnits="userSpaceOnUse" x1="321.8558" y1="306.252" x2="469.4614" y2="178.3271">
        <stop offset="0" style="stop-color:#F4E369"/>
        <stop offset="0.9996" style="stop-color:#65B223"/>
      </linearGradient>
      <linearGradient id="SVGID_19_" gradientUnits="userSpaceOnUse" x1="424.2018" y1="212.749" x2="509.1256" y2="147.9217">
        <stop offset="5.455720e-03" style="stop-color:#FFFFFF;stop-opacity:0"/>
        <stop offset="0.2863" style="stop-color:#AFAFAF;stop-opacity:0.2824"/>
        <stop offset="0.6369" style="stop-color:#525252;stop-opacity:0.6349"/>
        <stop offset="0.8829" style="stop-color:#171717;stop-opacity:0.8822"/>
        <stop offset="1" style="stop-color:#000000"/>
      </linearGradient>
      <path class="st16" d="M735.7,354.4c-57.2,5.6-105.8-43.3-141.4-81.7c-11.5-12.4-22.4-26.3-33-40.2c-1.4-1.9-1.6-2.2-2.3-3&#xD;&#xA;&#x9;&#x9;&#x9;c-2.3-3.1-4.7-6.2-7-9.4c-14.2-18.9-28.9-38.5-44.8-55.2c-9-9.4-17.6-17-25.8-23.1c19.6,14.5,49.9,25,78.1,31.3&#xD;&#xA;&#x9;&#x9;&#x9;c12.7,2.8,25,4.8,35.7,5.9c31.9,3.3,65.5-4,85.7-30.4c18.7-24.3,24.6-57.2,48.7-77.6c21.5-18.2,55.2-19.1,78.7-4.1&#xD;&#xA;&#x9;&#x9;&#x9;c4.7,3,9,6.5,12.7,10.8c13.2,14.9,18.9,35.1,21.9,54.8c0.6,3.9,1.1,7.9,1.4,12.1C851.2,220.1,824.3,345.7,735.7,354.4z"/>
      <path class="st17" d="M808.4,67c-0.3,75.4-30.1,177.5-109.7,185.3c-56,5.5-103.7-41.3-139.1-79.2c12.7,2.8,25,4.8,35.7,5.9&#xD;&#xA;&#x9;&#x9;&#x9;c31.9,3.3,65.5-4,85.7-30.4c18.7-24.3,24.6-57.2,48.7-77.6C751.2,52.9,784.8,52,808.4,67z"/>
      <path class="st18" d="M556.2,225.8c-10.3-13.5-32.4,6.4-47.6,23c-6.8,7.4-12.2,14-14.5,16.8c-3,3.5-6.3,7.6-9.9,12&#xD;&#xA;&#x9;&#x9;&#x9;c-33.8,41.8-88.7,112.8-139,54.8c-10.4-12-15.3-27.7-17.8-43.3c-4.2-25.9-1-53.3,5.8-78.5c1.1-4.2,2.4-8.4,3.8-12.6&#xD;&#xA;&#x9;&#x9;&#x9;c0,0,0-0.1,0-0.1c7.3-21.9,18.5-43.2,35.5-58.9c18.3-16.9,42.8-23.9,67.3-17.8c26.2,6.6,48.2,23.6,66.5,42.8&#xD;&#xA;&#x9;&#x9;&#x9;c15.8,16.6,30.5,36.2,44.7,55.1C552.7,221.2,554.4,223.5,556.2,225.8z"/>
      <path class="st19" d="M556.2,225.8c-10.3-13.5-32.4,6.4-47.6,23c-6.8,7.4-12.2,14-14.5,16.8c-3,3.5-6.3,7.6-9.9,12&#xD;&#xA;&#x9;&#x9;&#x9;c-47.3-94.4-114.3-89.3-147.2-79.7c0,0,0-0.1,0-0.1c7.3-21.9,18.5-43.2,35.5-58.9c18.3-16.9,42.8-23.9,67.3-17.8&#xD;&#xA;&#x9;&#x9;&#x9;c26.2,6.6,48.2,23.6,66.5,42.8c15.8,16.6,30.5,36.2,44.7,55.1C552.7,221.2,554.4,223.5,556.2,225.8z"/>
    </g>
  </g>
</svg>