<svg height="160.128154" viewBox="0 0 61.954668 15.813368" width="624.4998" xmlns="http://www.w3.org/2000/svg"><g transform="translate(237.40338 -143.97288)"><path d="m-208.8179 148.87354c2.00229.35002 2.01883 3.25217 1.27744 4.89479-.33762.74965-.88883 1.42765-1.63848 1.90445-.83372.52916-2.00781.92742-3.15985.74827.32797.30593 1.12448.45613 1.8576.36105-2.21313.6587-3.91088-.9412-3.93017-2.96554-.006-.5898.17639-1.26228.45889-1.80799-.33486 1.37942.0868 2.84565 1.03629 3.42305.31419.19155.67937.30593 1.2292.26596 1.04318-.0744 1.9458-.68626 2.57969-1.39871.67524-.7593 1.13688-1.64537 1.20579-2.7478.0675-1.0859-.2701-2.10427-.9164-2.67753" fill="#1e3a70" fill-rule="evenodd"/><path d="m-209.85556 154.70953c-.51401.34726-1.36151.8158-2.28892.62563-.85852-.17501-1.32292-.95223-1.61507-1.68672.3018.56224.84612 1.14791 1.59026 1.32567.80477.19155 1.6688-.0386 2.31373-.26458" fill="#0c9145" fill-rule="evenodd"/><path d="m-214.46923 150.59195c-.0358.0427-.073.0841-.10887.12678-.001.004-.001.007-.001.0124h-.007c-.49609.60634-.87092 1.32981-1.1038 2.14148-.0937.76756-.0317 1.56269.24253 2.29443-.14883-.99494-.0579-2.09048.36105-2.72438-.26321 1.15893-.1571 2.57004.40927 3.32658.42444.56638 1.07901.85852 1.71291 1.08452-1.02113-.48507-1.78456-1.45383-1.78456-2.81947 0-1.12586.49333-2.12356 1.08451-2.77399.64493-.70831 1.49655-1.18236 2.41157-1.47037-.60496-.0565-1.1796.0786-1.61644.26597.85852-.66973 1.97473-1.08039 3.37619-1.20579-2.21726-.34864-3.90535.66697-4.97609 1.74184" fill="#1e3a70"/><path d="m-214.54503 150.66912c-.0207.0207-.04.0413-.0592.062h.0179c.003-.004.006-.008.008-.011.006-.0152.0179-.0221.0221-.0372.004-.006.007-.008.011-.0138" fill="#d71e35"/><path d="m-214.55605 150.6829c-.004.0152-.0165.0221-.0221.0358.0358-.0427.073-.0841.10887-.12678-.0248.0262-.051.0524-.0758.0772-.004.006-.007.01-.011.0138" fill="#d71e35"/><g fill-rule="evenodd"><path d="m-208.26806 148.59655c-.86817-.0675-.8723-.1006-1.31465-.11024-.45475-.008-.86541.04-1.35186.15158-.9219.20946-1.45383.42857-2.14836.82407-1.27606.72898-2.18694 1.93752-2.61 3.45061.12264-1.37666.68764-2.4722 1.5186-3.30316.81166-.81166 1.8631-1.43592 3.25492-1.5434 1.03353-.0799 1.96508.10886 2.65135.53054" fill="#d71e35"/><path d="m-235.48294 156.62776c-.27009-.0689-1.55856.20946-1.75975-.0717-.0854-.11989.0441-.52365.0965-.77308.72071-3.38722 1.45245-6.73309 2.17041-10.10102.0992-.46853.23978-1.32154.38585-1.5186.12816-.0813.52228-.0496.96463-.0496.25493 0 .69591-.0455.79512.073.0937.11162-.0289.58842-.073.79651-.7152 3.37205-1.45934 6.79924-2.19384 10.14925-.11438.52365-.18603 1.06935-.38585 1.49517" fill="#1e3a70"/><path d="m-227.7673 153.39764c.43546-1.63849.69177-3.45475 1.15617-5.06429.26872.0138 1.25402-.21773 1.44694.0482.10887.15158-.0965.81442-.14332 1.03766-.37207 1.74184-.77307 3.47541-1.13412 5.1828-.14883.70556-.2384 1.44005-.48231 2.02572-.4272.0386-1.01975.04-1.44694 0-.22462-.13781-.2701-.42719-.36105-.65181-.65457-1.60542-1.35323-3.29903-1.97748-4.94165-.46578 1.80799-.77722 3.77169-1.25402 5.56865-.38447.0593-1.15893.1254-1.47037-.0482.0469-.70555.23427-1.40146.38585-2.09737.3707-1.6881.73312-3.44372 1.10932-5.1828.0717-.33211.113-.67938.28939-.96463.23565-.04.61461-.0234.96463-.0234.1943 0 .66697-.0496.81993.0234.21222.10335.44924.98667.55397 1.25401.4837 1.22784 1.12724 2.71887 1.54341 3.83371" fill="#1e3a70"/><path d="m-218.38975 151.34712c-.15159-1.47175-1.52825-1.72806-3.2067-1.59026-.37207 1.77353-.76619 3.52502-1.13275 5.30269 2.53559.29077 4.58474-1.34772 4.33945-3.71243m-4.74872-3.01377c1.59025-.001 4.08588-.29353 5.23103.28938.36794.18742.69729.46854.9164.77171.63527.87781.63665 2.29856.36104 3.35138-.56499 2.1649-1.9072 3.55672-4.33806 3.85713-.83372.10336-1.99402.0482-3.01377.0482-.29077 0-.80753.0593-.9164-.0965-.10335-.14469.0799-.74138.1447-1.03628.38171-1.77078.7717-3.43545 1.13274-5.15938.14194-.67937.22325-1.38217.48232-2.02571" fill="#1e3a70"/><path d="m-204.2125 152.09539c.79926.0468 1.68259-.34037 2.04915-.93982.15709-.26045.31557-.66008.26458-.98943-.0992-.64492-.8971-.75792-1.71152-.7469-.25081.84198-.39963 1.78456-.60221 2.67615m2.16904.93982c.33348.88884.70693 1.7446 1.06109 2.62792.11299.28388.27147.59394.26596.9164-.4837.14469-1.32016.062-1.88103.0482-.45475-1.02526-.81166-2.14561-1.22921-3.2067h-.65181c-.13642.50988-.27009 1.0666-.38585 1.61506-.11575.5526-.1695 1.11897-.38447 1.59164-.46578.004-1.24299.11851-1.59164-.0717.0303-.7152.23289-1.40146.38586-2.09875.37069-1.69223.71795-3.401 1.10794-5.1828.0744-.33487.12127-.95636.38585-.98806.41341-.051.92604 0 1.39871 0 1.305 0 2.37711-.0331 3.01377.65044.8971.96049.20532 2.70233-.53055 3.44647-.28112.28663-.55259.44786-.96462.65181" fill="#1e3a70"/><path d="m-196.93232 153.37283h2.1456c-.14745-.97703-.28938-1.96095-.48093-2.8925-.54708.97289-1.11759 1.91961-1.66467 2.8925m4.50894 3.2067c-.44786.12953-1.29673.0909-1.78318.0234-.18328-.54845-.22876-1.23472-.33762-1.85621-1.00597-.0565-2.11391-.008-3.15984-.0234-.43408.61047-.71107 1.37666-1.20441 1.92787-.44648-.0358-1.04317.0799-1.37528-.0717.0744-.41204.35415-.73863.55535-1.08452 1.16306-2.01056 2.33991-4.1038 3.56774-6.19704.17363-.29352.48369-.95911.72347-1.01148.26183-.0579 1.51033-.0744 1.6881.0717.15434.12678.16123.66008.21773.98805.2949 1.74047.54846 3.45199.84336 5.18418.11713.68902.31005 1.36977.26458 2.04915" fill="#1e3a70"/><path d="m-188.13217 148.33335c.30179 1.45934.47543 3.04546.69867 4.5806.19017-.12954.2632-.36243.38585-.55398.85851-1.32705 1.7818-2.76434 2.67615-4.07348h1.20716c.39274 0 .8406-.0703 1.10794.0951-.0331.70142-.25218 1.37941-.40928 2.07394-.39274 1.72669-.74 3.46439-1.10932 5.20761-.0689.32246-.11024.68213-.28938.96463-.4079.0179-1.06799.0896-1.39871-.0482-.0648-.47543.11575-.93707.21773-1.39871.29903-1.36013.60771-2.80018.91639-4.19475-.80891 1.16031-1.7253 2.64445-2.55626 3.95359-.10473.16674-.2825.48507-.38585.53055-.19017.0854-1.35461.0937-1.5186-.0234-.17363-.12403-.17087-.76206-.21773-1.08452-.16123-1.1355-.35553-2.2214-.48093-3.35139-.35554 1.36288-.6339 2.85116-.9412 4.26641-.1006.46578-.16537.93844-.36105 1.35048-.29352-.0551-1.23472.1943-1.42351-.073-.1006-.14194.0923-.7841.14469-1.03628.44235-2.08635.87506-4.09002 1.32705-6.19566.073-.34589.17639-.89711.28801-.98944.59945-.0813 1.52411-.0785 2.12218 0" fill="#1e3a70"/><path d="m-180.15195 153.37283h2.14561c-.15572-.96876-.2949-1.95543-.48232-2.8925-.54984.96738-1.12034 1.91547-1.66329 2.8925m2.74919 3.25493c-.22876-.51814-.24392-1.24988-.36243-1.88102-.99632-.0565-2.09737-.008-3.13366-.0234-.4768.57602-.7276 1.37804-1.22921 1.92787-.44235-.0482-1.08727.10611-1.37528-.0951.0813-.36656.32935-.71245.53055-1.06109 1.16995-2.02158 2.34542-4.05281 3.59254-6.19704.17501-.29765.47267-.95773.72347-1.01148.23978-.0537 1.51446-.0813 1.6881.0469.13918.10474.16812.71383.21635 1.01286.32935 2.05604.65732 4.0225 1.01286 6.19704.0427.26458.2136.84887.0965 1.01286-.20533.2825-1.40284.003-1.75975.0717" fill="#1e3a70"/></g><path d="m-236.03002 159.53266c-.0138.0193-.0289.0358-.0441.0482s-.0358.022-.0648.0289c-.0289.006-.0675.01-.11575.0124-.0469.001-.10887.003-.18604.003-.0896 0-.16123-.001-.21359-.003-.0538-.003-.0923-.007-.11989-.0124-.0276-.007-.0455-.0165-.0565-.0303-.01-.0124-.0152-.0289-.0179-.0524l-.35967-2.0643c-.004-.0317-.006-.0565-.004-.0772.001-.0193.0124-.0345.0317-.0441.0193-.01.0496-.0165.0923-.0193.0413-.003.0992-.004.17364-.004.073 0 .13091.001.17363.004.0413.003.073.007.0951.0124.022.007.0358.0152.0413.0276.007.0124.011.0276.0138.0469l.24942 1.75838h.006l1.14102-1.76665c.01-.0165.0221-.0303.0358-.0413.0138-.011.0331-.0193.0579-.0248.0248-.007.0579-.01.0992-.0124.0413-.003.0965-.004.16536-.004.0717 0 .12954.001.1695.006.0413.003.0689.011.0827.0248.0138.0124.0152.0317.004.0579-.011.0248-.0303.0579-.0593.1006zm0 0" fill="#213d75"/><path d="m-226.53258 157.39533c0 .007-.001.0193-.003.0372-.003.0179-.006.0372-.011.0593-.004.022-.01.0441-.0179.0689-.007.0234-.0165.0441-.0289.0634-.01.0193-.0234.0358-.04.0496-.0165.0124-.0331.0193-.051.0193h-1.04869l-.14469.55673h.88883c.0221 0 .0372.007.0455.0179.01.0124.0138.0289.0138.0496 0 .008-.001.0221-.003.0386-.003.0165-.006.0358-.011.0579-.004.022-.01.0441-.0179.0661-.007.0234-.0165.0427-.0289.062-.011.0193-.0234.0345-.0386.0469-.0152.011-.0317.0165-.051.0165h-.88608l-.16812.64492h1.06109c.0193 0 .0331.006.0413.0179.01.0124.0138.0303.0138.0537 0 .008-.001.0221-.003.04-.001.0165-.004.0372-.01.0593-.006.0207-.0124.0441-.0193.0661-.008.022-.0179.0427-.0289.062s-.0234.0344-.0386.0468-.0331.0179-.0537.0179h-1.47451c-.0234 0-.0455-.003-.0648-.008-.0193-.006-.0358-.0138-.0496-.0262-.0124-.0124-.0221-.0276-.0262-.0455-.004-.0193-.003-.0413.003-.0675l.51263-1.99126c.0138-.051.0413-.0896.0813-.11162.0413-.0234.0868-.0345.13643-.0345h1.46071c.04 0 .0593.0221.0593.0661" fill="#213d75"/><path d="m-218.15687 159.45136c-.007.0276-.0179.051-.0358.073-.0165.0207-.0386.0372-.0606.0524-.0234.0138-.0496.0248-.0772.0303-.0289.007-.0579.011-.0868.011h-.25494c-.0537 0-.0992-.006-.13367-.0138-.0345-.007-.0648-.0221-.0896-.0441-.0262-.0207-.0482-.0496-.0675-.0868-.0193-.0358-.04-.0827-.0606-.13918l-.43408-1.01975c-.0331-.0786-.0634-.15848-.0909-.2384-.0289-.0799-.0551-.15986-.0813-.2384h-.004c-.0152.0923-.0331.18465-.0524.27423-.0193.0909-.0413.18052-.0661.27147l-.29904 1.16582c-.003.0124-.01.0234-.0221.0331-.011.008-.0276.0165-.051.0221-.0221.007-.051.011-.0868.0152-.0358.003-.0799.004-.13229.004-.0538 0-.0978-.001-.13092-.004-.0344-.004-.0606-.008-.0785-.0152-.0179-.006-.0303-.0138-.0345-.0221-.006-.01-.006-.0207-.001-.0331l.52779-2.05466c.0138-.0551.0455-.0965.0937-.12402.0482-.0276.10198-.0413.16261-.0413h.31144c.0496 0 .0923.004.12816.0124.0358.01.0661.0234.0909.0427s.0469.0441.0661.0744c.0179.0303.0358.0689.0524.113l.43821 1.03077c.0289.0648.0551.13091.0785.19568.0234.0648.0482.12953.073.1943h.004c.0179-.0854.0358-.17225.0565-.26182.0207-.091.0413-.17777.062-.26321l.27975-1.07625c.003-.0124.01-.0221.0193-.0317.011-.008.0276-.0165.0496-.0207.0221-.006.0496-.01.0841-.0124.0358-.003.0799-.004.13229-.004.0524 0 .0965.001.13229.004.0344.003.0606.007.0785.0124.0179.004.0303.0124.0372.0207.006.01.007.0193.004.0317zm0 0" fill="#213d75"/><path d="m-209.09764 157.40222c0 .008-.001.022-.003.0413-.003.0179-.006.0386-.011.0606-.006.0221-.0124.0455-.0207.0689-.008.0248-.0179.0469-.0303.0661-.011.0207-.0248.0358-.04.0496-.0166.0138-.0331.0193-.051.0193h-.73725l-.47267 1.84244c-.004.011-.0124.0221-.0248.0317-.0124.01-.0303.0165-.0551.0221-.0248.007-.0579.011-.0965.0152-.0372.003-.0868.004-.14607.004-.0565 0-.10474-.001-.14194-.004-.0386-.004-.0675-.008-.0882-.0152-.0207-.006-.0345-.0124-.04-.0221-.007-.01-.01-.0207-.006-.0317l.47129-1.84244h-.73037c-.0234 0-.0386-.006-.0469-.0193-.008-.0138-.0124-.0303-.0124-.0524 0-.01.001-.0234.004-.0413.001-.0193.005-.0386.011-.062.004-.0234.0124-.0469.0193-.0717.008-.0234.0193-.0455.0317-.0661.011-.0193.0248-.0358.04-.0482s.0317-.0179.051-.0179h2.06843c.0179 0 .0331.006.0427.0193.01.0124.0138.0303.0138.0538" fill="#213d75"/><path d="m-200.74949 158.77199c-.0372.14607-.0965.27285-.17638.38447-.0799.10886-.18053.20119-.30042.27561-.11851.0744-.25631.12953-.41203.16674-.15434.0372-.32522.0551-.51401.0551-.19844 0-.36931-.0179-.51263-.0565s-.25631-.0951-.339-.17088c-.0841-.0758-.1378-.16949-.16123-.28249-.0248-.11438-.0165-.24667.0221-.3955l.35002-1.35599c.003-.0124.01-.0234.0207-.0317.011-.01.0303-.0179.0551-.0234.0248-.006.0565-.011.0951-.0138.0386-.004.0868-.006.14607-.006.0579 0 .10474.001.14332.006.0372.003.0675.008.0882.0138.0207.006.0358.0138.0414.0234.007.008.01.0193.007.0317l-.35002 1.35599c-.0248.0909-.0317.1695-.0207.23427.011.0661.0358.12126.0758.16398.0413.0427.0951.0744.1626.0951s.15021.0317.2453.0317c.0965 0 .18603-.0124.26871-.0345.0827-.0234.15572-.0565.21911-.1006.0634-.0441.11851-.0978.16261-.16261.0441-.0634.0772-.13505.0978-.21635l.3514-1.36701c.004-.0124.011-.0234.022-.0317.0124-.01.0289-.0179.0524-.0234.0234-.006.0551-.011.0937-.0138.04-.004.0882-.006.14607-.006.0565 0 .10336.001.14056.006.0358.003.0648.008.0854.0138.0221.006.0358.0138.0427.0234.005.008.008.0193.005.0317zm0 0" fill="#213d75"/><path d="m-192.55429 157.91347c0-.0331-.007-.0634-.0207-.0923-.0152-.0276-.0372-.0524-.0703-.073-.0317-.0207-.073-.0358-.12264-.0482-.051-.011-.11162-.0165-.18328-.0165h-.33762l-.16537.64905h.2825c.11438 0 .21084-.0138.28939-.0386.0786-.0248.14194-.0579.19017-.0978.0482-.04.0841-.0841.10473-.13367.0234-.0482.0331-.0978.0331-.14883m.63941-.0868c0 .0758-.0124.15021-.0386.22462-.0262.073-.0689.1447-.1254.20947-.0579.0661-.13229.1254-.22462.17914-.091.0524-.20257.0951-.33487.12678.073.022.13368.0661.18328.13229.0496.0675.0896.15848.12127.27423l.11989.4644c.007.0262.011.0496.0152.0689.004.0207.005.0386.005.0524 0 .0124-.005.0221-.0152.0303-.01.008-.0275.0152-.0524.0207-.0262.006-.062.008-.10611.011-.0441.003-.10059.004-.16812.004-.0648 0-.11575-.003-.15434-.006-.0386-.003-.0675-.007-.0896-.0138-.0207-.007-.0345-.0152-.0413-.0262-.007-.01-.0124-.0221-.0152-.0358l-.113-.50712c-.0124-.0593-.0289-.11162-.0482-.15572-.0207-.0441-.0469-.0813-.0786-.11162-.0317-.0303-.0717-.0524-.11713-.0675-.0455-.0152-.1006-.022-.16399-.022h-.18741l-.22325.8723c-.004.0124-.011.022-.0234.0317-.0124.01-.0303.0179-.0551.0234-.0248.006-.0579.01-.0965.0124-.04.003-.0882.006-.14607.006-.0565 0-.10473-.003-.14194-.006-.0358-.003-.0648-.007-.0868-.0124-.0207-.006-.0358-.0138-.0427-.0221-.008-.008-.01-.0207-.006-.0331l.53605-2.07671c.0124-.051.0386-.0896.0799-.113.0427-.022.0896-.0331.14469-.0331h.78686c.13781 0 .26183.01.37345.0303.11162.0193.20671.0496.28526.0909.0785.0413.13918.0937.18052.15572.0427.062.0634.13642.0634.22048" fill="#213d75"/><path d="m-183.52952 157.39533c0 .007-.001.0193-.004.0372s-.006.0372-.01.0593c-.005.022-.011.0441-.0179.0689-.008.0234-.0179.0441-.0289.0634s-.0248.0358-.0413.0496c-.0152.0124-.0331.0193-.051.0193h-1.0473l-.1447.55673h.88884c.0207 0 .0358.007.0455.0179.008.0124.0124.0289.0124.0496 0 .008 0 .0221-.003.0386s-.006.0358-.01.0579c-.006.022-.011.0441-.0193.0661-.007.0234-.0165.0427-.0275.062s-.0248.0345-.04.0469c-.0152.011-.0317.0165-.0496.0165h-.88745l-.16812.64492h1.06247c.0179 0 .0317.006.04.0179.01.0124.0138.0303.0138.0537 0 .008 0 .0221-.001.04-.001.0165-.006.0372-.011.0593-.006.0207-.011.0441-.0193.0661-.007.022-.0165.0427-.0275.062-.0124.0193-.0248.0344-.04.0468s-.033.0179-.0524.0179h-1.47451c-.0248 0-.0469-.003-.0661-.008-.0193-.006-.0358-.0138-.0482-.0262-.0138-.0124-.0221-.0276-.0262-.0455-.004-.0193-.004-.0413.001-.0675l.514-1.99126c.0124-.051.04-.0896.0813-.11162.04-.0234.0854-.0345.13642-.0345h1.46073c.0386 0 .0592.0221.0592.0661" fill="#213d75"/><path d="m-175.581 157.50419c0 .008-.001.0221-.004.04s-.006.0372-.01.0579c-.006.022-.011.0427-.0179.0648-.007.0221-.0152.0427-.0248.0606-.01.0179-.0207.0331-.0331.0441-.011.0124-.0248.0179-.0372.0179-.0221 0-.0482-.007-.0799-.022-.0317-.0138-.0717-.0303-.11714-.0482-.0469-.0165-.10059-.0317-.16261-.0468-.062-.0152-.13229-.0221-.21084-.0221-.0813 0-.1502.008-.2067.0262-.0579.0179-.10335.0413-.14056.0689-.0358.0303-.0634.062-.0799.0978s-.0262.0717-.0262.10886c0 .0427.0138.0799.04.11162.0289.0331.0648.0634.11024.0909.0441.0276.0965.0538.15434.0799.0593.0262.11852.0524.17777.0813.0593.0289.11851.0593.17639.0923.0579.0345.11024.073.15572.11714.0455.0441.0813.0951.10886.15158.0276.0565.0413.12265.0413.19706 0 .11024-.0289.2136-.0868.30868-.0579.0937-.13918.17639-.24392.24667-.10473.0703-.23288.12402-.38171.16536-.14883.04-.31419.0593-.49472.0593-.0992 0-.18879-.006-.27285-.0179-.0827-.0124-.15709-.0276-.22049-.0455-.0648-.0179-.11851-.0358-.1626-.0551-.0441-.0193-.0758-.0386-.0978-.0551-.0207-.0179-.0317-.0455-.0317-.0799 0-.01.001-.0234.004-.0427.004-.0193.008-.0386.0124-.0606.006-.0221.0124-.0441.0207-.0675.007-.0234.0165-.0441.0262-.062.011-.0193.0221-.0345.0358-.0469.0124-.011.0262-.0165.0413-.0165.0262 0 .0565.008.0923.0262.0345.0193.0799.0386.13229.0606.0537.0221.11576.0413.18879.0606.073.0193.15985.0289.26045.0289.0896 0 .16812-.01.23565-.0262.0661-.0179.12264-.0427.16812-.073.0455-.0303.0799-.0661.10335-.1061.0234-.0414.0358-.0854.0358-.13367 0-.0441-.0138-.0827-.0413-.11576-.0275-.0331-.0634-.0634-.10749-.0896-.0455-.0289-.0951-.0551-.15296-.0799-.0565-.0248-.11438-.051-.17364-.0786-.0579-.0289-.11575-.0592-.17363-.0923-.0551-.0331-.1061-.0717-.15158-.11576-.0441-.0441-.0799-.0951-.10749-.15296-.0275-.0579-.0413-.12403-.0413-.2012 0-.1061.0275-.20257.0827-.29214.0537-.0896.12954-.16812.226-.23151.0978-.0634.21222-.11438.34727-.15021.13504-.0358.28387-.0537.4451-.0537.0758 0 .14745.004.21498.0138.0689.008.13091.0193.18603.0331.0565.0138.10336.0289.14332.0455.04.0165.0662.0289.0813.0413.0152.011.0262.0234.0331.0358.007.011.011.0276.011.0469" fill="#213d75"/></g></svg>